# xmcd
#
# Track frame offsets: 
#        150
#        13549
#        25800
#        40398
#        54000
#        66732
#        78063
#        89901
#        104776
#        117299
#        129851
#        152275
#        164570
#        180057
#        197753
#        211355
#        225150
#        239430
#        251849
#        266002
#        280167
#        293011
#        305825
#        317320
#
# Disc length: 4401 seconds
#
# Revision: 1
# Processed by: cddbd v1.5.2PL0 Copyright (c) Steve Scherf et al.
# Submitted via: ExactAudioCopy v1.1
#
DISCID=46112f18
DTITLE=Various Artist - Complete Motown Singles Vol.12A - Disc 66
DYEAR=2013
DGENRE=R&B
TTITLE0=The Four Tops - A Simple Game (mono)
TTITLE1=The Four Tops - L.A. (My Town) (mono)
TTITLE2=Jimmy Ruffin - Our Favorite Melody (mono)
TTITLE3=Jimmy Ruffin - You Gave Me Love (mono)
TTITLE4=The Marvelettes - A Breath Taking Guy (mono)
TTITLE5=The Marvelettes - You're The One For Me Bobby (mono)
TTITLE6=The Originals - I'm Someone Who Cares (mono)
TTITLE7=The Originals - Once I Have You (I Will Never Let Go) (mono)
TTITLE8=The Originals - I'm Someone Who Cares (stereo promo version)
TTITLE9=Blue Scepter - Out In The Night (mono)
TTITLE10=Blue Scepter - Gypsy Eyes (mono)
TTITLE11=Blue Scepter - Out In The Night (stereo promo version)
TTITLE12=The Undisputed Truth - What It Is (mono)
TTITLE13=The Undisputed Truth - California Soul (mono)
TTITLE14=Posse - Feel Like Givin' Up (mono)
TTITLE15=Posse - Take Somebody Like You (mono)
TTITLE16=The Temptations - Take A Look Around (mono)
TTITLE17=The Temptations - Smooth Sailing (From Now On) (mono)
TTITLE18=The Temptations - Take A Look Around (stereo promo version)
TTITLE19=Devastating Affair - I Want To Be Humble (mono)
TTITLE20=Devastating Affair - My Place (mono)
TTITLE21=Devastating Affair - I Want To Be Humble (stereo promo versio
TTITLE21=n)
TTITLE22=Michael Jackson - Rockin' Robin (mono)
TTITLE23=Michael Jackson - Love Is Here And Now You're Gone (mono)
EXTD=
EXTT0=
EXTT1=
EXTT2=
EXTT3=
EXTT4=
EXTT5=
EXTT6=
EXTT7=
EXTT8=
EXTT9=
EXTT10=
EXTT11=
EXTT12=
EXTT13=
EXTT14=
EXTT15=
EXTT16=
EXTT17=
EXTT18=
EXTT19=
EXTT20=
EXTT21=
EXTT22=
EXTT23=
PLAYORDER=
